<svg width="909" height="249" viewBox="0 0 909 249" fill="none" xmlns="http://www.w3.org/2000/svg">
<g clip-path="url(#clip0_201_215)">
<path fill-rule="evenodd" clip-rule="evenodd" d="M688.442 249V248.958C688.442 196.172 688.442 116.993 688.442 11.4214C688.442 11.4214 734.914 5.51379 785.717 5.51379C888.506 5.51379 908.985 77.1931 908.985 140.996C908.985 179.636 897.447 220.869 871.023 249H688.442Z" fill="#42C6A5"/>
<path fill-rule="evenodd" clip-rule="evenodd" d="M673.319 249H486.231C474.974 233.467 469.07 211.816 469.07 182.349V7.87683H624.631V172.503L671.497 169.746L673.319 249Z" fill="#42C6A5"/>
<path fill-rule="evenodd" clip-rule="evenodd" d="M423.398 249H252.35C228.474 223.93 214.647 185.762 214.647 136.269C214.647 53.1687 267.419 0 338.702 0C411.166 0 461.182 53.1687 461.182 136.269C461.182 185.762 447.137 223.93 423.398 249Z" fill="#42C6A5"/>
<path fill-rule="evenodd" clip-rule="evenodd" d="M0 249V7.87683H121.299C173.678 7.87683 196.126 35.4458 196.126 68.9224C196.126 95.3098 187.855 115.396 170.527 128.393C199.67 136.269 213.848 163.838 213.848 196.133C213.848 214.972 209.895 234.179 196.924 249H0Z" fill="#42C6A5"/>
</g>
<defs>
<clipPath id="clip0_201_215">
<rect width="909" height="249" fill="white"/>
</clipPath>
</defs>
</svg>
